<mxfile host="app.diagrams.net" agent="Mozilla/5.0 (Windows NT 10.0; Win64; x64) AppleWebKit/537.36 (KHTML, like Gecko) Chrome/134.0.0.0 Safari/537.36" version="26.1.1">
  <diagram name="Page-1" id="e3a06f82-3646-2815-327d-82caf3d4e204">
    <mxGraphModel dx="1434" dy="744" grid="1" gridSize="10" guides="1" tooltips="1" connect="1" arrows="1" fold="1" page="1" pageScale="1.5" pageWidth="1169" pageHeight="826" background="none" math="0" shadow="0">
      <root>
        <mxCell id="0" style=";html=1;" />
        <mxCell id="1" style=";html=1;" parent="0" />
        <mxCell id="IBQe493MqbLReaXvpwa1-16" value="&lt;div&gt;Tablet Client&lt;/div&gt;" style="whiteSpace=wrap;html=1;fillColor=#dae8fc;fontSize=14;strokeColor=#6c8ebf;verticalAlign=top;" vertex="1" parent="1">
          <mxGeometry x="190" y="330" width="493" height="360" as="geometry" />
        </mxCell>
        <mxCell id="6a7d8f32e03d9370-61" value="ThinkStation-P620 (Linux Server)&lt;div&gt;&lt;br&gt;&lt;/div&gt;" style="whiteSpace=wrap;html=1;fillColor=#dae8fc;fontSize=14;strokeColor=#6c8ebf;verticalAlign=top;" parent="1" vertex="1">
          <mxGeometry x="1230" y="330" width="493" height="360" as="geometry" />
        </mxCell>
        <mxCell id="6a7d8f32e03d9370-6" value="" style="verticalLabelPosition=bottom;aspect=fixed;html=1;verticalAlign=top;strokeColor=default;shape=mxgraph.citrix.pda;fillColor=#66B2FF;gradientColor=#0066CC;fontSize=14;" parent="1" vertex="1">
          <mxGeometry x="390.00000000000006" y="700" width="30" height="61" as="geometry" />
        </mxCell>
        <mxCell id="6a7d8f32e03d9370-15" value="" style="verticalLabelPosition=top;aspect=fixed;html=1;verticalAlign=bottom;strokeColor=none;shape=mxgraph.citrix.cache_server;fillColor=#66B2FF;gradientColor=#0066CC;fontSize=14;labelPosition=center;align=center;" parent="1" vertex="1">
          <mxGeometry x="1441" y="700" width="71" height="97.5" as="geometry" />
        </mxCell>
        <mxCell id="6a7d8f32e03d9370-62" value="Medical Scenario Architecture" style="text;strokeColor=none;fillColor=none;html=1;fontSize=24;fontStyle=1;verticalAlign=middle;align=center;" parent="1" vertex="1">
          <mxGeometry x="499" y="30" width="861" height="40" as="geometry" />
        </mxCell>
        <mxCell id="IBQe493MqbLReaXvpwa1-8" value="" style="endArrow=none;dashed=1;html=1;dashPattern=1 3;strokeWidth=2;rounded=0;" edge="1" parent="1" source="IBQe493MqbLReaXvpwa1-19" target="IBQe493MqbLReaXvpwa1-9">
          <mxGeometry width="50" height="50" relative="1" as="geometry">
            <mxPoint x="561.1968999999999" y="387.39200000000005" as="sourcePoint" />
            <mxPoint x="510" y="340" as="targetPoint" />
          </mxGeometry>
        </mxCell>
        <mxCell id="IBQe493MqbLReaXvpwa1-9" value="EDUROAM&lt;div&gt;Public Network&lt;/div&gt;" style="ellipse;shape=cloud;whiteSpace=wrap;html=1;" vertex="1" parent="1">
          <mxGeometry x="850" y="210" width="170" height="100" as="geometry" />
        </mxCell>
        <mxCell id="IBQe493MqbLReaXvpwa1-11" value="&lt;b&gt;NGINX&lt;/b&gt;&lt;div&gt;Web Server&lt;/div&gt;" style="rounded=0;whiteSpace=wrap;html=1;fillColor=#ffe6cc;strokeColor=#d79b00;" vertex="1" parent="1">
          <mxGeometry x="1270" y="490" width="120" height="60" as="geometry" />
        </mxCell>
        <mxCell id="IBQe493MqbLReaXvpwa1-12" value="" style="endArrow=none;dashed=1;html=1;dashPattern=1 3;strokeWidth=2;rounded=0;" edge="1" parent="1" source="6a7d8f32e03d9370-61" target="IBQe493MqbLReaXvpwa1-9">
          <mxGeometry width="50" height="50" relative="1" as="geometry">
            <mxPoint x="850" y="730" as="sourcePoint" />
            <mxPoint x="900" y="680" as="targetPoint" />
          </mxGeometry>
        </mxCell>
        <mxCell id="IBQe493MqbLReaXvpwa1-13" value="Medical Scenario Angular Application" style="rounded=0;whiteSpace=wrap;html=1;fillColor=#d5e8d4;strokeColor=#82b366;" vertex="1" parent="1">
          <mxGeometry x="1530" y="490" width="120" height="60" as="geometry" />
        </mxCell>
        <mxCell id="IBQe493MqbLReaXvpwa1-15" value="" style="endArrow=classic;startArrow=classic;html=1;rounded=0;" edge="1" parent="1" source="IBQe493MqbLReaXvpwa1-11" target="IBQe493MqbLReaXvpwa1-13">
          <mxGeometry width="50" height="50" relative="1" as="geometry">
            <mxPoint x="850" y="730" as="sourcePoint" />
            <mxPoint x="900" y="680" as="targetPoint" />
          </mxGeometry>
        </mxCell>
        <mxCell id="IBQe493MqbLReaXvpwa1-18" value="Web Browser Client" style="sketch=0;pointerEvents=1;shadow=0;dashed=0;html=1;strokeColor=none;fillColor=#434445;aspect=fixed;labelPosition=center;verticalLabelPosition=bottom;verticalAlign=top;align=center;outlineConnect=0;shape=mxgraph.vvd.web_browser;" vertex="1" parent="1">
          <mxGeometry x="290" y="454.5" width="120.42" height="85.5" as="geometry" />
        </mxCell>
        <mxCell id="IBQe493MqbLReaXvpwa1-19" value="Wi-Fi" style="sketch=0;pointerEvents=1;shadow=0;dashed=0;html=1;strokeColor=none;fillColor=#434445;aspect=fixed;labelPosition=center;verticalLabelPosition=bottom;verticalAlign=top;align=center;outlineConnect=0;shape=mxgraph.vvd.wi_fi;" vertex="1" parent="1">
          <mxGeometry x="510" y="400" width="50" height="50" as="geometry" />
        </mxCell>
      </root>
    </mxGraphModel>
  </diagram>
</mxfile>
